<svg width="131" height="101" viewBox="0 0 131 101" fill="none" xmlns="http://www.w3.org/2000/svg">
<path d="M14.4753 49.2757L14.4765 49.2763C16.5297 50.3278 18.8242 50.8528 21.3579 50.8528C24.1507 50.8528 26.6492 50.2774 28.8512 49.1245C31.0892 47.9722 32.8443 46.3777 34.114 44.3417C35.3849 42.3038 36.0188 39.9284 36.0188 37.2188C36.0188 34.5429 35.3849 32.1844 34.1143 30.1468C32.8446 28.0771 31.0893 26.4823 28.8506 25.3633C26.6488 24.2105 24.1504 23.6353 21.3579 23.6353C18.7874 23.6353 16.4744 24.1601 14.4209 25.2118C12.707 26.0896 11.2918 27.3101 10.176 28.8721V23.9878V23.8878H10.076H6.29688H6.19687V23.9878V60.2973V60.3973H6.29688H10.2428H10.3428V60.2973V45.8006C11.4585 47.2505 12.8362 48.409 14.4753 49.2757ZM43.8626 50.5003V50.6003H43.9626H47.9084H48.0084V50.5003V23.9878V23.8878H47.9084H43.9626H43.8626V23.9878V50.5003ZM66.454 25.3137C64.9096 26.1303 63.6798 27.1881 62.7666 28.4868V23.9878V23.8878H62.6666H58.8874H58.7874V23.9878V50.5003V50.6003H58.8874H62.8333H62.9333V50.5003V36.5623C62.9333 34.5559 63.3382 32.8571 64.1424 31.4616C64.9847 30.0312 66.1555 28.9507 67.6567 28.2187L67.6574 28.2183C69.1972 27.4521 70.9972 27.0673 73.0592 27.0673C75.8209 27.0673 77.9422 27.7864 79.437 29.2112L79.4388 29.2128C80.9678 30.6022 81.7402 32.6754 81.7402 35.4513V50.5003V50.6003H81.8402H85.7861H85.8861V50.5003V35.0978C85.8861 32.5263 85.3651 30.386 84.3155 28.683C83.3046 26.9823 81.8815 25.7231 80.048 24.9069C78.2539 24.0581 76.1646 23.6353 73.7817 23.6353C70.9531 23.6353 68.5094 24.1934 66.454 25.3137ZM100.79 49.1248L100.791 49.1253C103.104 50.2779 105.787 50.8528 108.838 50.8528C111.183 50.8528 113.325 50.4807 115.265 49.7353C117.241 48.9897 118.885 47.9039 120.194 46.4774L120.257 46.4083L120.192 46.3407L117.969 44.0177L117.896 43.9416L117.824 44.0182C116.724 45.1851 115.403 46.0517 113.861 46.6189L113.86 46.6192C112.353 47.187 110.717 47.4713 108.949 47.4713C106.702 47.4713 104.698 47.0529 102.935 46.219C101.209 45.351 99.8528 44.1678 98.8631 42.6693C98.0826 41.4143 97.6213 40.0017 97.4804 38.4298H121.898H121.998V38.3298V38.3286V38.3274V38.3263V38.3251V38.3239V38.3227V38.3215V38.3203V38.3192V38.318V38.3168V38.3156V38.3144V38.3133V38.3121V38.3109V38.3097V38.3086V38.3074V38.3062V38.305V38.3039V38.3027V38.3015V38.3003V38.2992V38.298V38.2968V38.2956V38.2945V38.2933V38.2921V38.291V38.2898V38.2886V38.2874V38.2863V38.2851V38.2839V38.2828V38.2816V38.2804V38.2793V38.2781V38.2769V38.2758V38.2746V38.2734V38.2723V38.2711V38.2699V38.2688V38.2676V38.2665V38.2653V38.2641V38.263V38.2618V38.2606V38.2595V38.2583V38.2572V38.256V38.2548V38.2537V38.2525V38.2514V38.2502V38.2491V38.2479V38.2467V38.2456V38.2444V38.2433V38.2421V38.241V38.2398V38.2387V38.2375V38.2364V38.2352V38.234V38.2329V38.2317V38.2306V38.2294V38.2283V38.2271V38.226V38.2248V38.2237V38.2225V38.2214V38.2203V38.2191V38.218V38.2168V38.2157V38.2145V38.2134V38.2122V38.2111V38.2099V38.2088V38.2077V38.2065V38.2054V38.2042V38.2031V38.2019V38.2008V38.1997V38.1985V38.1974V38.1962V38.1951V38.194V38.1928V38.1917V38.1906V38.1894V38.1883V38.1871V38.186V38.1849V38.1837V38.1826V38.1815V38.1803V38.1792V38.1781V38.1769V38.1758V38.1747V38.1735V38.1724V38.1713V38.1702V38.169V38.1679V38.1668V38.1656V38.1645V38.1634V38.1622V38.1611V38.16V38.1589V38.1577V38.1566V38.1555V38.1544V38.1532V38.1521V38.151V38.1499V38.1487V38.1476V38.1465V38.1454V38.1443V38.1431V38.142V38.1409V38.1398V38.1387V38.1375V38.1364V38.1353V38.1342V38.1331V38.1319V38.1308V38.1297V38.1286V38.1275V38.1264V38.1252V38.1241V38.123V38.1219V38.1208V38.1197V38.1186V38.1175V38.1163V38.1152V38.1141V38.113V38.1119V38.1108V38.1097V38.1086V38.1075V38.1064V38.1052V38.1041V38.103V38.1019V38.1008V38.0997V38.0986V38.0975V38.0964V38.0953V38.0942V38.0931V38.092V38.0909V38.0898V38.0887V38.0876V38.0865V38.0854V38.0843V38.0832V38.0821V38.081V38.0799V38.0788V38.0777V38.0766V38.0755V38.0744V38.0733V38.0722V38.0711V38.07V38.0689V38.0678V38.0667V38.0656V38.0645V38.0634V38.0623V38.0612V38.0601V38.0591V38.058V38.0569V38.0558V38.0547V38.0536V38.0525V38.0514V38.0503V38.0492V38.0482V38.0471V38.046V38.0449V38.0438V38.0427V38.0416V38.0406V38.0395V38.0384V38.0373V38.0362V38.0351V38.034V38.033V38.0319V38.0308V38.0297V38.0286V38.0276V38.0265V38.0254V38.0243V38.0232V38.0222V38.0211V38.02V38.0189V38.0178V38.0168V38.0157V38.0146V38.0135V38.0125V38.0114V38.0103V38.0092V38.0082V38.0071V38.006V38.005V38.0039V38.0028V38.0017V38.0007V37.9996V37.9985V37.9975V37.9964V37.9953V37.9942V37.9932V37.9921V37.991V37.99V37.9889V37.9878V37.9868V37.9857V37.9846V37.9836V37.9825V37.9814V37.9804V37.9793V37.9783V37.9772V37.9761V37.9751V37.974V37.9729V37.9719V37.9708V37.9698V37.9687V37.9676V37.9666V37.9655V37.9645V37.9634V37.9624V37.9613V37.9602V37.9592V37.9581V37.9571V37.956V37.955V37.9539V37.9529V37.9518V37.9508V37.9497V37.9486V37.9476V37.9465V37.9455V37.9444V37.9434V37.9423V37.9413V37.9402V37.9392V37.9381V37.9371V37.936V37.935V37.934V37.9329V37.9319V37.9308V37.9298V37.9287V37.9277V37.9266V37.9256V37.9245V37.9235V37.9225V37.9214V37.9204V37.9193V37.9183V37.9173V37.9162V37.9152V37.9141V37.9131V37.9121V37.911V37.91V37.9089V37.9079V37.9069V37.9058V37.9048V37.9038V37.9027V37.9017V37.9006V37.8996V37.8986V37.8975V37.8965V37.8955V37.8944V37.8934V37.8924V37.8914V37.8903V37.8893V37.8883V37.8872V37.8862V37.8852V37.8841V37.8831V37.8821V37.8811V37.88V37.879V37.878V37.877V37.8759V37.8749V37.8739V37.8729V37.8718V37.8708V37.8698V37.8688V37.8677V37.8667V37.8657V37.8647V37.8636V37.8626V37.8616V37.8606V37.8596V37.8585V37.8575V37.8565V37.8555V37.8545V37.8535V37.8524V37.8514V37.8504V37.8494V37.8484V37.8474V37.8463V37.8453V37.8443V37.8433V37.8423V37.8413V37.8403V37.8393V37.8382V37.8372V37.8362V37.8352V37.8342V37.8332V37.8322V37.8312V37.8302V37.8292V37.8282V37.8271V37.8261V37.8251V37.8241V37.8231V37.8221V37.8211V37.8201V37.8191V37.8181V37.8171V37.8161V37.8151V37.8141V37.8131V37.8121V37.8111V37.8101V37.8091V37.8081V37.8071V37.8061V37.8051V37.8041V37.8031V37.8021V37.8011V37.8001V37.7991V37.7981V37.7971V37.7961V37.7951V37.7941V37.7931V37.7921V37.7911V37.7901V37.7891V37.7882V37.7872V37.7862V37.7852V37.7842V37.7833C122.035 37.5801 122.054 37.392 122.054 37.2188C122.054 34.5434 121.439 32.1852 120.206 30.1478C118.974 28.0783 117.274 26.4833 115.109 25.3639C112.981 24.2106 110.538 23.6353 107.782 23.6353C105.062 23.6353 102.6 24.2279 100.399 25.4148C98.2346 26.5675 96.5173 28.1618 95.2483 30.1969L95.2477 30.198C94.0145 32.2353 93.3992 34.5766 93.3992 37.2188C93.3992 39.8621 94.052 42.2209 95.3598 44.2917L95.3602 44.2923C96.667 46.3283 98.4778 47.9389 100.79 49.1248ZM118.071 35.5533H97.4995C97.6521 34.1242 98.0706 32.8282 98.754 31.6639C99.6335 30.1654 100.861 28.9999 102.438 28.1667C104.015 27.3335 105.796 26.9158 107.782 26.9158C109.806 26.9158 111.586 27.3336 113.125 28.1663C114.666 28.9993 115.875 30.1648 116.755 31.6639L116.756 31.6663C117.481 32.8251 117.919 34.1203 118.071 35.5533ZM26.591 46.2203C24.9769 47.0534 23.1407 47.4713 21.08 47.4713C19.0196 47.4713 17.1646 47.0535 15.5131 46.2201C13.8989 45.3531 12.6158 44.1537 11.6622 42.6211C10.7464 41.056 10.2872 39.2563 10.2872 37.2188C10.2872 35.181 10.7465 33.3983 11.6619 31.8674C12.6157 30.3343 13.8991 29.1347 15.5138 28.2676C17.1652 27.4007 19.0199 26.9663 21.08 26.9663C23.1404 26.9663 24.9763 27.4008 26.5903 28.2674C28.2053 29.1346 29.489 30.3345 30.443 31.8681C31.3952 33.399 31.8729 35.1814 31.8729 37.2188C31.8729 39.2558 31.3953 41.0553 30.4428 42.6203C29.489 44.1534 28.2056 45.3531 26.591 46.2203ZM43.8397 17.4463C44.4155 17.9695 45.1253 18.2298 45.9633 18.2298C46.8356 18.2298 47.5475 17.9707 48.0881 17.4451C48.6635 16.9217 48.9532 16.2725 48.9532 15.5038C48.9532 14.7664 48.6616 14.1497 48.0843 13.66C47.5083 13.1715 46.7989 12.9293 45.9633 12.9293C45.126 12.9293 44.4166 13.1892 43.841 13.7116C43.2645 14.2011 42.9733 14.8174 42.9733 15.5543C42.9733 16.2914 43.2646 16.9237 43.8397 17.4463Z" fill="white" stroke="white" stroke-width="0.2"/>
<path d="M18.089 90.0726C19.2122 89.7664 20.1701 89.2891 20.9605 88.6394L21.0241 88.5871L20.985 88.5146L19.5956 85.9391L19.539 85.8342L19.4456 85.9082C18.3178 86.8007 16.896 87.2501 15.1727 87.2501C13.5599 87.2501 12.3282 86.834 11.4631 86.0158C10.6356 85.1981 10.2153 84.0317 10.2153 82.5021V66.7451H19.0074H19.1074V66.6451V63.6656V63.5656H19.0074H10.2153V57.8076V57.7076H10.1153H6.16943H6.06943V57.8076V63.5656H0.945312H0.845312V63.6656V66.6451V66.7451H0.945312H6.06943V82.7041C6.06943 85.1829 6.81773 87.1149 8.32522 88.4846C9.83149 89.8532 11.9707 90.5306 14.7281 90.5306C15.8853 90.5306 17.0057 90.378 18.089 90.0726ZM18.089 90.0726C18.0893 90.0725 18.0895 90.0724 18.0898 90.0724L18.0626 89.9761L18.0889 90.0726C18.089 90.0726 18.089 90.0726 18.089 90.0726ZM31.2815 88.802L31.2831 88.8028C33.5587 89.9552 36.1124 90.5306 38.9422 90.5306C41.8088 90.5306 44.3811 89.9553 46.6567 88.8028L46.6577 88.8023C48.9327 87.6162 50.7063 86.0053 51.976 83.9691C53.2837 81.8984 53.9364 79.5398 53.9364 76.8966C53.9364 74.2203 53.2838 71.8614 51.9757 69.8236C50.706 67.7875 48.9323 66.1933 46.6571 65.0411C44.4179 63.8883 41.8454 63.3131 38.9422 63.3131C36.0756 63.3131 33.5216 63.8884 31.2825 65.0412C29.0445 66.1935 27.2711 67.7877 25.9645 69.8231C24.6563 71.8609 24.0035 74.2201 24.0035 76.8966C24.0035 79.5399 24.6564 81.8987 25.9641 83.9695L25.9645 83.9701C27.271 86.0053 29.044 87.6159 31.2815 88.802ZM48.3045 82.2986L48.3041 82.2993C47.3876 83.8317 46.1231 85.0311 44.5085 85.8982C42.8949 86.7311 41.04 87.1491 38.9422 87.1491C36.9188 87.1491 35.1011 86.7313 33.4867 85.8981C31.8722 85.0309 30.5888 83.8312 29.635 82.2981C28.6825 80.7331 28.2049 78.9337 28.2049 76.8966C28.2049 74.8251 28.6827 73.0259 29.6348 71.4954C30.5885 69.9623 31.8718 68.7793 33.4861 67.946L33.4875 67.9452C35.1015 67.0785 36.9374 66.6441 38.9978 66.6441C41.0581 66.6441 42.8942 67.0785 44.5079 67.9452L44.5093 67.946C46.1234 68.7791 47.3877 69.9617 48.3041 71.494L48.305 71.4954C49.2573 73.0259 49.7349 74.8251 49.7349 76.8966C49.7349 78.9339 49.2574 80.7335 48.3045 82.2986ZM63.0292 85.4317L63.03 85.4331C64.078 87.134 65.5385 88.4096 67.4087 89.2592C69.2765 90.1078 71.4586 90.5306 73.9524 90.5306C76.5599 90.5306 78.8372 89.989 80.7815 88.9019L80.7819 88.9017C82.2664 88.0617 83.4583 86.9822 84.3562 85.6637V90.1781V90.2781H84.4562H88.2354H88.3354V90.1781V63.6656V63.5656H88.2354H84.2895H84.1895V63.6656V77.5531C84.1895 79.5596 83.7846 81.2759 82.9797 82.7055L82.9788 82.7073C82.2108 84.1361 81.0773 85.2328 79.5761 85.9983C78.1106 86.7304 76.3669 87.0986 74.3414 87.0986C71.5799 87.0986 69.4396 86.3964 67.9072 85.0044C66.4145 83.5816 65.6605 81.4741 65.6605 78.6641V63.6656V63.5656H65.5605H61.6146H61.5146V63.6656V79.0681C61.5146 81.606 62.0173 83.7289 63.0292 85.4317ZM79.6211 86.0876C81.1399 85.3132 82.2888 84.2022 83.0668 82.7546L67.8391 85.0776C69.3952 86.4916 71.5627 87.1986 74.3414 87.1986C76.3791 87.1986 78.1389 86.8282 79.6211 86.0876ZM99.1322 90.1781V90.2781H99.2322H103.178H103.278V90.1781V76.6441C103.278 73.5319 104.143 71.154 105.86 69.4945L105.86 69.4938C107.579 67.7997 109.959 66.9471 113.015 66.9471C113.156 66.9471 113.296 66.9632 113.438 66.9951L113.448 66.9976H113.46H113.461H113.461H113.462H113.463H113.464H113.465H113.466H113.467H113.467H113.468H113.469H113.47H113.471H113.472H113.473H113.474H113.474H113.475H113.476H113.477H113.478H113.479H113.48H113.481H113.481H113.482H113.483H113.484H113.485H113.486H113.487H113.487H113.488H113.489H113.49H113.491H113.492H113.493H113.494H113.494H113.495H113.496H113.497H113.498H113.499H113.5H113.501H113.501H113.502H113.503H113.504H113.505H113.506H113.507H113.507H113.508H113.509H113.51H113.511H113.512H113.513H113.514H113.514H113.515H113.516H113.517H113.518H113.519H113.52H113.521H113.521H113.522H113.523H113.524H113.525H113.526H113.527H113.527H113.528H113.529H113.53H113.531H113.532H113.533H113.534H113.534H113.535H113.536H113.537H113.538H113.539H113.54H113.54H113.541H113.542H113.543H113.544H113.545H113.546H113.547H113.547H113.548H113.549H113.55H113.551H113.552H113.553H113.554H113.554H113.555H113.556H113.557H113.558H113.559H113.56H113.56H113.561H113.562H113.563H113.564H113.565H113.566H113.567H113.567H113.568H113.569H113.57H113.571H113.572H113.573H113.574H113.574H113.575H113.576H113.577H113.578H113.579H113.58H113.58H113.581H113.582H113.583H113.584H113.585H113.586H113.587H113.587H113.588H113.589H113.59H113.591H113.592H113.593H113.594H113.594H113.595H113.596H113.597H113.598H113.599H113.6H113.6H113.601H113.602H113.603H113.604H113.605H113.606H113.607H113.607H113.608H113.609H113.61H113.611H113.612H113.613H113.613H113.614H113.615H113.616H113.617H113.618H113.619H113.62H113.62H113.621H113.622H113.623H113.624H113.625H113.626H113.627H113.627H113.628H113.629H113.63H113.631H113.632H113.633H113.633H113.634H113.635H113.636H113.637H113.638H113.639H113.64H113.64H113.641H113.642H113.643H113.644H113.645H113.646H113.646H113.647H113.648H113.649H113.65H113.651H113.652H113.653H113.653H113.654H113.655H113.656H113.657H113.658H113.659H113.66H113.66H113.661H113.662H113.663H113.664H113.665H113.666H113.666H113.667H113.668H113.669H113.67H113.671H113.672H113.673H113.673H113.674H113.675H113.676H113.677H113.678H113.679H113.679H113.68H113.681H113.682H113.683H113.684H113.685H113.686H113.686H113.687H113.688H113.689H113.69H113.691H113.692H113.692H113.693H113.694H113.695H113.696H113.697H113.698H113.699H113.699H113.7H113.701H113.702H113.703H113.704H113.705H113.706H113.706H113.707H113.708H113.709H113.71H113.711H113.712H113.712H113.713H113.714H113.715H113.716H113.717H113.718H113.719H113.719H113.72H113.721H113.722H113.723H113.724H113.725H113.725H113.726H113.727H113.728H113.729H113.73H113.731H113.732H113.732H113.733H113.734H113.735H113.736H113.737H113.738H113.739H113.739H113.74H113.741H113.742H113.743H113.744H113.745H113.745H113.746H113.747H113.748H113.749H113.75H113.751H113.752H113.752H113.753H113.754H113.755H113.756H113.757H113.758H113.758H113.759H113.76H113.761H113.762H113.763H113.764H113.765H113.765H113.766H113.767H113.768H113.769H113.77H113.771H113.771H113.772H113.773H113.774H113.775H113.776H113.777H113.778H113.778H113.779H113.78H113.781H113.782H113.783H113.784H113.785H113.785H113.786H113.787H113.788H113.789H113.79H113.791H113.791H113.792H113.793H113.794H113.795H113.796H113.797H113.798H113.798H113.799H113.8H113.801H113.802H113.803H113.804H113.804H113.805H113.806H113.807H113.808H113.809H113.81H113.811H113.811H113.812H113.813H113.814H113.815H113.816H113.817H113.817H113.818H113.819H113.82H113.821H113.822H113.823H113.824H113.824H113.825H113.826H113.827H113.828H113.829H113.83H113.83H113.831H113.832H113.833H113.834H113.835H113.836H113.837H113.837H113.838H113.839H113.84H113.841H113.842H113.843H113.844H113.844H113.845H113.846H113.847H113.848H113.849H113.85H113.85H113.851H113.852H113.853H113.854H113.855H113.856H113.857H113.857H113.858H113.859H113.86H113.861H113.862H113.863H113.863H113.864H113.865H113.866H113.867H113.868H113.869H113.87H113.87H113.871H113.872H113.873H113.874H113.875H113.876H113.876H113.877H113.878H113.879H113.88H113.881H113.882H113.883H113.883H113.884H113.885H113.886H113.887H113.888H113.889H113.889H113.89H113.891H113.892H113.893H113.894H113.895H113.896H113.896H113.897H113.898H113.899H113.9H113.901H113.902H113.903H113.903H113.904H114.004V66.8976V63.4131V63.3131H113.904C111.04 63.3131 108.632 63.8538 106.687 64.9415C105.142 65.7785 103.95 66.9274 103.111 68.3866V63.6656V63.5656H103.011H99.2322H99.1322V63.6656V90.1781Z" fill="white" stroke="white" stroke-width="0.2"/>
<path d="M121.928 90.4313C121.113 90.4313 120.409 90.1618 119.816 89.6233C119.26 89.0847 118.982 88.4282 118.982 87.6538C118.982 86.8458 119.26 86.1893 119.816 85.6843C120.409 85.1793 121.113 84.9268 121.928 84.9268C122.743 84.9268 123.428 85.1793 123.984 85.6843C124.577 86.1893 124.873 86.8458 124.873 87.6538C124.873 88.4282 124.577 89.0847 123.984 89.6233C123.428 90.1618 122.743 90.4313 121.928 90.4313Z" fill="#18BA51"/>
</svg>
